<svg xmlns="http://www.w3.org/2000/svg" viewBox="0 0 16 16">
	<defs>
		<path id="c" pathLength="1" d="M8 15a7 7 0 1 1 7-7"/>
		<mask id="m" maskUnits="userSpaceOnUse" x="0" y="0" width="16" height="16">
			<use href="#c" fill="none" stroke="#fff" stroke-width="1" stroke-linecap="round" stroke-dasharray="0 1" opacity="0">
				<animate attributeName="stroke-dasharray" dur="5s" repeatCount="indefinite" calcMode="spline" keyTimes="0;.25;.7;.9;1" keySplines=".42 0 1 1;0 0 1 1;0 0 .58 1;0 0 1 1" values="0 1;1 0;1 0;0 1;0 1"/>
				<animate attributeName="opacity" dur="5s" repeatCount="indefinite" keyTimes="0;.05;.85;.9;1" values="0;1;1;0;0"/>
			</use>
		</mask>
	</defs>
	<use href="#c" fill="none" stroke="currentColor" stroke-width="1" stroke-linecap="round" stroke-dasharray=".726 .064 .045 .064 .045 .064" mask="url(#m)"/>
	<path fill="currentColor" opacity="0" d="m15.05 10.19-1.3-.9a1 1 0 0 0-1.4.25l-2.1 3a.8.8 0 0 0-.15.45l.05 1.75a.7.7 0 0 0 1 .7l1.65-.54a.8.8 0 0 0 .4-.3l2.1-3a1 1 0 0 0-.25-1.41Zm-2.76 4.06-1.4-.95 2.05-2.95a.4.4 0 0 1 .55-.1l.75.5a.4.4 0 0 1 .1.55Z">
		<animate attributeName="opacity" dur="5s" repeatCount="indefinite" keyTimes="0;.05;.4;.65;.75;1" values="0;0;1;1;0;0"/>
	</path>
	<line x1="50%" y1="50%" x2="50%" y2="33%" fill="none" stroke="currentColor" stroke-width="1" stroke-linecap="round" transform="rotate(60 8 8)">
		<animateTransform attributeName="transform" type="rotate" dur="5s" repeatCount="indefinite" keyTimes="0;.7;.75;1" values="60 8 8;120 8 8;60 8 8;60 8 8"/>
	</line>
	<line x1="50%" y1="50%" x2="50%" y2="28%" fill="none" stroke="currentColor" stroke-width="1" stroke-linecap="round" transform="rotate(120 8 8)">
		<animateTransform attributeName="transform" type="rotate" dur="5s" repeatCount="indefinite" keyTimes="0;.7;.9;1" values="120 8 8;840 8 8;480 8 8;480 8 8"/>
	</line>
</svg>