<svg xmlns="http://www.w3.org/2000/svg" version="1.0" viewBox="0 0 16 16">
	<g fill="currentColor">
	<path d="M7.2,16L7.2,16c-2.2-0.1-4.1-1.2-5.4-2.9c-1.5-1.6-2-3.8-1.8-5.8C0.5,2.9,4.5-0.3,8.9,0c0.3,0,0.6,0.3,0.4,0.6
		C9.3,0.9,9,1.2,8.7,1C4.9,0.7,1.4,3.5,1.1,7.4c-0.3,1.7,0.3,3.6,1.5,4.9s2.8,2.3,4.7,2.5c0.3,0,0.6,0.3,0.4,0.6
		C7.7,15.9,7.5,16,7.2,16z"/>
	<path d="M15.4,8.6c-0.3,0-0.6-0.3-0.6-0.6c0-0.4,0-1-0.1-1.5c0-0.3,0.1-0.6,0.4-0.6c0.3,0,0.6,0.1,0.6,0.4C15.9,7,15.9,7.6,15.9,8
		C16,8.4,15.9,8.6,15.4,8.6z"/>
	<path d="M14.6,5.1c-0.1,0-0.4-0.1-0.4-0.3c-0.1-0.4-0.4-0.9-0.9-1.2c-0.1-0.1-0.1-0.6,0-0.7c0.1-0.1,0.6-0.1,0.7,0
		c0.4,0.4,0.7,0.9,1,1.5c0.1,0.3,0,0.6-0.1,0.7C14.9,5.1,14.7,5.1,14.6,5.1z"/>
	<path d="M12.2,2.3c-0.1,0-0.1,0-0.3-0.1c-0.6-0.1-1-0.4-1.3-0.6c-0.3-0.1-0.4-0.4-0.4-0.7c0.1-0.3,0.4-0.4,0.7-0.3
		c0.6,0.1,1,0.4,1.5,0.9c0.3,0.1,0.3,0.4,0.1,0.7C12.5,2.3,12.4,2.3,12.2,2.3z"/>
	<path d="M15.6,10.3l-1.5-1C13.7,9,13,9.2,12.7,9.6l-2.2,3.2c-0.1,0.1-0.1,0.3-0.1,0.4v1.9c0,0.6,0.6,0.9,1,0.7l1.8-0.6
		c0.1,0,0.3-0.1,0.4-0.3l2.2-3.2C16.2,11.4,16,10.8,15.6,10.3z M12.5,14.7l-1.5-1l2.2-3.2c0.1-0.1,0.4-0.1,0.6-0.1l0.9,0.6
		c0.1,0.1,0.1,0.4,0.1,0.6L12.5,14.7z"/>
	<path d="M5.6,11.9c-0.1,0-0.3,0-0.4-0.1c-0.3-0.3-0.3-0.7,0-1l2.6-2.6C7.8,8,8,7.7,8,7.6V4.7c0-0.4,0.3-0.7,0.7-0.7
		s0.7,0.3,0.7,0.7v2.9c0,0.6-0.1,1.2-0.6,1.6l-2.6,2.6C5.9,11.8,5.8,11.9,5.6,11.9z"/>
</g>
</svg>
