<svg xmlns="http://www.w3.org/2000/svg" viewBox="0 0 16 16">
<path stroke="currentColor" fill="none" stroke-width="1" d="M14.785,7.122c-0.112-0.072-0.996-0.6-1.346-0.761l-0.434-1.051
	c0.129-0.348,0.376-1.321,0.42-1.49c0.035-0.157-0.012-0.32-0.126-0.434l-0.685-0.681c-0.113-0.115-0.278-0.162-0.434-0.126
	c-0.129,0.03-1.121,0.28-1.49,0.42L9.639,2.565C9.487,2.229,8.972,1.367,8.878,1.218C8.794,1.081,8.643,0.996,8.482,0.996H7.518
	c-0.161,0-0.311,0.082-0.397,0.219C7.05,1.327,6.522,2.21,6.361,2.561L5.311,2.995c-0.348-0.129-1.321-0.376-1.49-0.42
	C3.664,2.54,3.499,2.587,3.386,2.701L2.705,3.386C2.59,3.499,2.543,3.663,2.579,3.82c0.03,0.129,0.28,1.121,0.42,1.49L2.565,6.361
	C2.229,6.513,1.367,7.028,1.218,7.122C1.081,7.206,0.996,7.357,0.996,7.518v0.962c0,0.161,0.082,0.311,0.219,0.397
	c0.112,0.071,0.995,0.599,1.346,0.76l0.434,1.051c-0.129,0.348-0.376,1.321-0.42,1.49c-0.035,0.157,0.012,0.32,0.126,0.434
	l0.681,0.681c0.113,0.115,0.278,0.162,0.434,0.126c0.129-0.03,1.121-0.28,1.49-0.42l1.051,0.434
	c0.152,0.336,0.667,1.198,0.761,1.346c0.085,0.14,0.237,0.225,0.401,0.224h0.962c0.161,0,0.311-0.082,0.397-0.219
	c0.072-0.112,0.6-0.996,0.761-1.346l1.051-0.434c0.348,0.129,1.321,0.376,1.49,0.42c0.157,0.035,0.32-0.012,0.434-0.126l0.681-0.681
	c0.115-0.113,0.162-0.278,0.126-0.434c-0.03-0.129-0.28-1.121-0.42-1.49l0.434-1.051c0.336-0.152,1.198-0.667,1.346-0.761
	c0.139-0.084,0.224-0.236,0.223-0.4V7.518C15.005,7.357,14.922,7.207,14.785,7.122z M8,11.049C6.315,11.048,4.949,9.68,4.951,7.994
	S6.32,4.943,8.006,4.945c1.686,0.002,3.05,1.37,3.049,3.055C11.051,9.684,9.684,11.048,8,11.049z"/>
</svg>
