<svg xmlns="http://www.w3.org/2000/svg" version="1.0" viewBox="0 0 46 46">
	<g style="fill:#c7c7c7;">
		<path d="M21.2,37.5C21.1,37.5,21.1,37.5,21.2,37.5c-4.1-0.4-7.7-2.3-10.2-5.4c-2.6-3.1-3.7-7-3.4-11  c0.8-8.3,8.1-14.3,16.4-13.5c0.6,0.1,1,0.5,0.9,1.1c-0.1,0.6-0.5,1-1.1,0.9c-7.1-0.7-13.5,4.6-14.2,11.7c-0.3,3.5,0.7,6.8,2.9,9.5  c2.2,2.7,5.3,4.3,8.8,4.7c0.6,0.1,1,0.5,0.9,1.1C22.1,37.1,21.7,37.5,21.2,37.5z"/>
		<path d="M36.5,23.6c-0.6,0-1-0.5-1-1c0-0.9-0.1-1.8-0.3-2.7c-0.1-0.5,0.2-1.1,0.8-1.2c0.6-0.1,1.1,0.2,1.2,0.8  c0.2,1,0.3,2.1,0.3,3.1C37.5,23.2,37.1,23.6,36.5,23.6z"/>
		<path d="M34.8,17c-0.4,0-0.7-0.2-0.9-0.5c-0.4-0.8-0.9-1.6-1.5-2.3c-0.4-0.4-0.3-1.1,0.1-1.4c0.4-0.4,1.1-0.3,1.4,0.1  c0.7,0.8,1.3,1.7,1.8,2.6c0.3,0.5,0.1,1.1-0.4,1.4C35.2,17,35,17,34.8,17z"/>
		<path d="M30.3,12c-0.2,0-0.4-0.1-0.6-0.2c-0.8-0.5-1.6-0.9-2.4-1.3c-0.5-0.2-0.8-0.8-0.6-1.3c0.2-0.5,0.8-0.8,1.3-0.6  c1,0.4,1.9,0.9,2.8,1.5c0.5,0.3,0.6,0.9,0.3,1.4C30.9,11.8,30.6,12,30.3,12z"/>
	</g>
	<g style="fill:#5e9cd2;">
		<path d="M36.6,26.9L34,25.1c-0.9-0.6-2.2-0.4-2.8,0.5l-4.2,6c-0.2,0.3-0.3,0.6-0.3,0.9l0.1,3.5c0,1,1,1.7,2,1.4l3.3-1.1  c0.3-0.1,0.6-0.3,0.8-0.6l4.2-6C37.7,28.8,37.5,27.6,36.6,26.9z M31.1,35l-2.8-1.9l4.1-5.9c0.2-0.3,0.7-0.4,1.1-0.2L35,28  c0.3,0.2,0.4,0.7,0.2,1.1L31.1,35z"/>
		<path d="M18.1,29.8c-0.3,0-0.6-0.1-0.9-0.4c-0.5-0.5-0.5-1.3,0-1.8l4.8-4.8c0.3-0.3,0.4-0.7,0.4-1.1v-5.4  c0-0.7,0.6-1.3,1.3-1.3c0.7,0,1.3,0.6,1.3,1.3v5.4c0,1.1-0.4,2.1-1.2,2.9L19,29.4C18.8,29.7,18.5,29.8,18.1,29.8z"/>
	</g>
</svg>